# Blender 4.4.3
# www.blender.org
o Circle
v -0.025981 0.030000 -0.985000
v 0.025981 0.030000 -0.985000
v -0.000000 0.000000 -0.965359
v -0.018374 0.030000 -0.988892
v -0.009506 0.030000 -0.991340
v 0.000000 0.030000 -0.992174
v -0.025096 0.022238 -0.983810
v -0.017052 0.021994 -0.987749
v -0.008384 0.022125 -0.990036
v -0.000017 0.022286 -0.990754
v -0.022499 0.014998 -0.981518
v -0.014540 0.014944 -0.985354
v -0.006816 0.015710 -0.987627
v -0.000002 0.016339 -0.988431
v 0.000000 0.012679 -0.986340
v 0.025096 0.022238 -0.983810
v 0.022499 0.014998 -0.981518
v 0.018371 0.008787 -0.978286
v 0.018374 0.030000 -0.988892
v 0.017109 0.021928 -0.987706
v 0.014596 0.014952 -0.985340
v 0.011081 0.009510 -0.982390
v 0.009506 0.030000 -0.991340
v 0.008360 0.022079 -0.990026
v 0.006822 0.015703 -0.987622
v 0.004525 0.011115 -0.985011
v -0.006722 0.001021 -0.969919
v -0.012992 0.004021 -0.974332
v -0.018371 0.008787 -0.978286
v 0.006722 0.001021 -0.969919
v -0.000057 0.002238 -0.974815
v -0.006212 0.005271 -0.979002
v -0.011064 0.009491 -0.982377
v 0.012992 0.004021 -0.974332
v 0.006180 0.005290 -0.979034
v -0.000006 0.007833 -0.982470
v -0.004524 0.011113 -0.985009
v -0.840045 0.030000 -0.515000
v -0.836025 0.000000 -0.482680
v -0.866025 0.030000 -0.470000
v -0.839456 0.022238 -0.513639
v -0.838770 0.014998 -0.510244
v -0.838035 0.008787 -0.505053
v -0.847218 0.030000 -0.510358
v -0.846824 0.021928 -0.508670
v -0.846031 0.014952 -0.505310
v -0.845234 0.009510 -0.500791
v -0.853773 0.030000 -0.503903
v -0.853208 0.022079 -0.502253
v -0.851895 0.015703 -0.499719
v -0.850781 0.011115 -0.496425
v -0.854195 0.012679 -0.493170
v -0.843336 0.001021 -0.479138
v -0.850292 0.004021 -0.475914
v -0.856406 0.008787 -0.473233
v -0.836614 0.001021 -0.490781
v -0.844243 0.002238 -0.487358
v -0.850946 0.005271 -0.484121
v -0.856296 0.009491 -0.481607
v -0.837300 0.004021 -0.498418
v -0.844778 0.005290 -0.494869
v -0.850847 0.007833 -0.491230
v -0.855305 0.011113 -0.488587
v -0.865592 0.030000 -0.478533
v -0.863279 0.030000 -0.487437
v -0.859248 0.030000 -0.496087
v -0.864552 0.022238 -0.470171
v -0.863942 0.021994 -0.479107
v -0.861588 0.022125 -0.487758
v -0.858026 0.022286 -0.495363
v -0.861269 0.014998 -0.471275
v -0.860611 0.014944 -0.480085
v -0.858718 0.015710 -0.487911
v -0.856007 0.016339 -0.494214
v -0.866025 0.030000 0.470000
v -0.836025 0.000000 0.482680
v -0.840045 0.030000 0.515000
v -0.864552 0.022238 0.470171
v -0.861269 0.014998 0.471275
v -0.856406 0.008787 0.473233
v -0.865592 0.030000 0.478533
v -0.863933 0.021928 0.479036
v -0.860627 0.014952 0.480030
v -0.856315 0.009510 0.481599
v -0.863279 0.030000 0.487437
v -0.861567 0.022079 0.487773
v -0.858717 0.015703 0.487903
v -0.855307 0.011115 0.488586
v -0.854195 0.012679 0.493170
v -0.836614 0.001021 0.490781
v -0.837300 0.004021 0.498418
v -0.838035 0.008787 0.505053
v -0.843336 0.001021 0.479138
v -0.844186 0.002238 0.487457
v -0.844734 0.005271 0.494881
v -0.845231 0.009491 0.500770
v -0.850292 0.004021 0.475914
v -0.850958 0.005290 0.484165
v -0.850841 0.007833 0.491240
v -0.850781 0.011113 0.496422
v -0.847218 0.030000 0.510358
v -0.853773 0.030000 0.503903
v -0.859248 0.030000 0.496087
v -0.839456 0.022238 0.513639
v -0.846890 0.021994 0.508642
v -0.853204 0.022125 0.502278
v -0.858010 0.022286 0.495391
v -0.838770 0.014998 0.510244
v -0.846072 0.014944 0.505269
v -0.851902 0.015710 0.499716
v -0.856005 0.016339 0.494217
v -0.025981 0.030000 0.985000
v 0.000000 0.000000 0.965359
v 0.025981 0.030000 0.985000
v -0.025096 0.022238 0.983810
v -0.022499 0.014998 0.981518
v -0.018371 0.008787 0.978286
v -0.018374 0.030000 0.988892
v -0.017109 0.021928 0.987706
v -0.014596 0.014952 0.985340
v -0.011081 0.009510 0.982390
v -0.009506 0.030000 0.991340
v -0.008360 0.022079 0.990026
v -0.006822 0.015703 0.987622
v -0.004526 0.011115 0.985011
v -0.000000 0.012679 0.986340
v 0.006722 0.001021 0.969919
v 0.012992 0.004021 0.974332
v 0.018371 0.008787 0.978286
v -0.006722 0.001021 0.969919
v 0.000057 0.002238 0.974815
v 0.006212 0.005271 0.979002
v 0.011064 0.009491 0.982377
v -0.012992 0.004021 0.974332
v -0.006180 0.005290 0.979034
v 0.000006 0.007833 0.982470
v 0.004524 0.011113 0.985009
v 0.018374 0.030000 0.988892
v 0.009506 0.030000 0.991340
v -0.000000 0.030000 0.992174
v 0.025096 0.022238 0.983810
v 0.017052 0.021994 0.987749
v 0.008384 0.022125 0.990036
v 0.000017 0.022286 0.990754
v 0.022499 0.014998 0.981518
v 0.014540 0.014944 0.985354
v 0.006816 0.015710 0.987627
v 0.000002 0.016339 0.988431
v 0.840045 0.030000 0.515000
v 0.836025 0.000000 0.482680
v 0.866025 0.030000 0.470000
v 0.839456 0.022238 0.513639
v 0.838770 0.014998 0.510244
v 0.838035 0.008787 0.505053
v 0.847218 0.030000 0.510358
v 0.846824 0.021928 0.508670
v 0.846031 0.014952 0.505310
v 0.845234 0.009510 0.500791
v 0.853773 0.030000 0.503903
v 0.853208 0.022079 0.502253
v 0.851895 0.015703 0.499719
v 0.850781 0.011115 0.496425
v 0.854195 0.012679 0.493170
v 0.843336 0.001021 0.479138
v 0.850292 0.004021 0.475914
v 0.856406 0.008787 0.473233
v 0.836614 0.001021 0.490781
v 0.844243 0.002238 0.487358
v 0.850946 0.005271 0.484121
v 0.856296 0.009491 0.481607
v 0.837300 0.004021 0.498418
v 0.844778 0.005290 0.494869
v 0.850847 0.007833 0.491230
v 0.855305 0.011113 0.488587
v 0.865592 0.030000 0.478533
v 0.863279 0.030000 0.487437
v 0.859248 0.030000 0.496087
v 0.864552 0.022238 0.470171
v 0.863942 0.021994 0.479107
v 0.861588 0.022125 0.487758
v 0.858026 0.022286 0.495363
v 0.861269 0.014998 0.471275
v 0.860611 0.014944 0.480085
v 0.858718 0.015710 0.487911
v 0.856007 0.016339 0.494214
v 0.866025 0.030000 -0.470000
v 0.836025 0.000000 -0.482680
v 0.840045 0.030000 -0.515000
v 0.864552 0.022238 -0.470171
v 0.861269 0.014998 -0.471275
v 0.856406 0.008787 -0.473233
v 0.865592 0.030000 -0.478533
v 0.863933 0.021928 -0.479036
v 0.860627 0.014952 -0.480030
v 0.856315 0.009510 -0.481599
v 0.863279 0.030000 -0.487437
v 0.861567 0.022079 -0.487773
v 0.858717 0.015703 -0.487903
v 0.855307 0.011115 -0.488586
v 0.854195 0.012679 -0.493170
v 0.836614 0.001021 -0.490781
v 0.837300 0.004021 -0.498418
v 0.838035 0.008787 -0.505053
v 0.843336 0.001021 -0.479138
v 0.844186 0.002238 -0.487457
v 0.844734 0.005271 -0.494881
v 0.845231 0.009491 -0.500770
v 0.850292 0.004021 -0.475914
v 0.850958 0.005290 -0.484165
v 0.850841 0.007833 -0.491240
v 0.850781 0.011113 -0.496422
v 0.847218 0.030000 -0.510358
v 0.853773 0.030000 -0.503903
v 0.859248 0.030000 -0.496087
v 0.839456 0.022238 -0.513639
v 0.846890 0.021994 -0.508642
v 0.853204 0.022125 -0.502278
v 0.858010 0.022286 -0.495391
v 0.838770 0.014998 -0.510244
v 0.846072 0.014944 -0.505269
v 0.851902 0.015710 -0.499716
v 0.856005 0.016339 -0.494217
v -0.025981 0.070000 -0.985000
v 0.000000 0.100000 -0.965359
v 0.025981 0.070000 -0.985000
v -0.025096 0.077762 -0.983810
v -0.022499 0.085002 -0.981518
v -0.018371 0.091213 -0.978286
v -0.018374 0.070000 -0.988892
v -0.017109 0.078072 -0.987706
v -0.014596 0.085048 -0.985340
v -0.011081 0.090490 -0.982390
v -0.009506 0.070000 -0.991340
v -0.008360 0.077921 -0.990026
v -0.006822 0.084297 -0.987622
v -0.004526 0.088885 -0.985011
v -0.000000 0.087321 -0.986340
v 0.006722 0.098979 -0.969919
v 0.012992 0.095979 -0.974332
v 0.018371 0.091213 -0.978286
v -0.006722 0.098978 -0.969919
v 0.000057 0.097762 -0.974815
v 0.006212 0.094729 -0.979002
v 0.011064 0.090509 -0.982377
v -0.012992 0.095979 -0.974332
v -0.006180 0.094710 -0.979034
v 0.000006 0.092167 -0.982470
v 0.004524 0.088887 -0.985009
v 0.018374 0.070000 -0.988892
v 0.009506 0.070000 -0.991340
v -0.000000 0.070000 -0.992174
v 0.025096 0.077762 -0.983810
v 0.017052 0.078006 -0.987749
v 0.008384 0.077875 -0.990036
v 0.000017 0.077714 -0.990754
v 0.022499 0.085002 -0.981518
v 0.014540 0.085056 -0.985354
v 0.006816 0.084290 -0.987627
v 0.000002 0.083661 -0.988431
v -0.840045 0.070000 -0.515000
v -0.866025 0.070000 -0.470000
v -0.836025 0.100000 -0.482680
v -0.847218 0.070000 -0.510358
v -0.853773 0.070000 -0.503903
v -0.859248 0.070000 -0.496087
v -0.839456 0.077762 -0.513639
v -0.846890 0.078006 -0.508642
v -0.853204 0.077875 -0.502278
v -0.858010 0.077714 -0.495391
v -0.838770 0.085002 -0.510244
v -0.846072 0.085056 -0.505269
v -0.851902 0.084290 -0.499716
v -0.856005 0.083661 -0.494217
v -0.854195 0.087321 -0.493170
v -0.864552 0.077762 -0.470171
v -0.861269 0.085002 -0.471275
v -0.856406 0.091213 -0.473233
v -0.865592 0.070000 -0.478533
v -0.863933 0.078072 -0.479036
v -0.860627 0.085048 -0.480030
v -0.856315 0.090490 -0.481599
v -0.863279 0.070000 -0.487437
v -0.861567 0.077921 -0.487773
v -0.858717 0.084297 -0.487903
v -0.855307 0.088885 -0.488586
v -0.836614 0.098979 -0.490781
v -0.837300 0.095979 -0.498418
v -0.838035 0.091213 -0.505053
v -0.843336 0.098979 -0.479138
v -0.844186 0.097762 -0.487457
v -0.844734 0.094729 -0.494881
v -0.845231 0.090509 -0.500770
v -0.850292 0.095979 -0.475914
v -0.850958 0.094710 -0.484165
v -0.850841 0.092167 -0.491240
v -0.850781 0.088887 -0.496422
v -0.866025 0.070000 0.470000
v -0.840045 0.070000 0.515000
v -0.836025 0.100000 0.482680
v -0.865592 0.070000 0.478533
v -0.863279 0.070000 0.487437
v -0.859248 0.070000 0.496087
v -0.864552 0.077762 0.470171
v -0.863942 0.078006 0.479107
v -0.861588 0.077875 0.487758
v -0.858026 0.077714 0.495363
v -0.861269 0.085002 0.471275
v -0.860611 0.085056 0.480085
v -0.858718 0.084290 0.487911
v -0.856007 0.083661 0.494214
v -0.854195 0.087321 0.493170
v -0.839456 0.077762 0.513639
v -0.838770 0.085002 0.510244
v -0.838035 0.091213 0.505053
v -0.847218 0.070000 0.510358
v -0.846824 0.078072 0.508670
v -0.846031 0.085048 0.505310
v -0.845234 0.090490 0.500791
v -0.853773 0.070000 0.503903
v -0.853207 0.077921 0.502253
v -0.851895 0.084297 0.499719
v -0.850781 0.088885 0.496425
v -0.843336 0.098979 0.479138
v -0.850292 0.095979 0.475914
v -0.856406 0.091213 0.473233
v -0.836614 0.098978 0.490781
v -0.844243 0.097762 0.487358
v -0.850946 0.094729 0.484121
v -0.856295 0.090509 0.481607
v -0.837300 0.095979 0.498418
v -0.844778 0.094710 0.494869
v -0.850847 0.092167 0.491230
v -0.855305 0.088887 0.488587
v -0.025981 0.070000 0.985000
v 0.025981 0.070000 0.985000
v -0.000000 0.100000 0.965359
v -0.018374 0.070000 0.988892
v -0.009506 0.070000 0.991340
v 0.000000 0.070000 0.992174
v -0.025096 0.077762 0.983810
v -0.017052 0.078006 0.987749
v -0.008384 0.077875 0.990036
v -0.000017 0.077714 0.990754
v -0.022499 0.085002 0.981518
v -0.014540 0.085056 0.985354
v -0.006816 0.084290 0.987627
v -0.000002 0.083661 0.988431
v 0.000000 0.087321 0.986340
v 0.025096 0.077762 0.983810
v 0.022499 0.085002 0.981518
v 0.018371 0.091213 0.978286
v 0.018374 0.070000 0.988892
v 0.017109 0.078072 0.987706
v 0.014596 0.085048 0.985340
v 0.011081 0.090490 0.982390
v 0.009506 0.070000 0.991340
v 0.008360 0.077921 0.990026
v 0.006822 0.084297 0.987622
v 0.004525 0.088885 0.985011
v -0.006722 0.098979 0.969919
v -0.012992 0.095979 0.974332
v -0.018371 0.091213 0.978286
v 0.006722 0.098978 0.969919
v -0.000057 0.097762 0.974815
v -0.006212 0.094729 0.979002
v -0.011064 0.090509 0.982377
v 0.012992 0.095979 0.974332
v 0.006180 0.094710 0.979034
v -0.000006 0.092167 0.982470
v -0.004524 0.088887 0.985009
v 0.840045 0.070000 0.515000
v 0.866025 0.070000 0.470000
v 0.836025 0.100000 0.482680
v 0.847218 0.070000 0.510358
v 0.853773 0.070000 0.503903
v 0.859248 0.070000 0.496087
v 0.839456 0.077762 0.513639
v 0.846890 0.078006 0.508642
v 0.853204 0.077875 0.502278
v 0.858010 0.077714 0.495391
v 0.838770 0.085002 0.510244
v 0.846072 0.085056 0.505269
v 0.851902 0.084290 0.499716
v 0.856005 0.083661 0.494217
v 0.854195 0.087321 0.493170
v 0.864552 0.077762 0.470171
v 0.861269 0.085002 0.471275
v 0.856406 0.091213 0.473233
v 0.865592 0.070000 0.478533
v 0.863933 0.078072 0.479036
v 0.860627 0.085048 0.480030
v 0.856315 0.090490 0.481599
v 0.863279 0.070000 0.487437
v 0.861567 0.077921 0.487773
v 0.858717 0.084297 0.487903
v 0.855307 0.088885 0.488586
v 0.836614 0.098979 0.490781
v 0.837300 0.095979 0.498418
v 0.838035 0.091213 0.505053
v 0.843336 0.098979 0.479138
v 0.844186 0.097762 0.487457
v 0.844734 0.094729 0.494881
v 0.845231 0.090509 0.500770
v 0.850292 0.095979 0.475914
v 0.850958 0.094710 0.484165
v 0.850841 0.092167 0.491240
v 0.850781 0.088887 0.496422
v 0.866025 0.070000 -0.470000
v 0.840045 0.070000 -0.515000
v 0.836025 0.100000 -0.482680
v 0.865592 0.070000 -0.478533
v 0.863279 0.070000 -0.487437
v 0.859248 0.070000 -0.496087
v 0.864552 0.077762 -0.470171
v 0.863942 0.078006 -0.479107
v 0.861588 0.077875 -0.487758
v 0.858026 0.077714 -0.495363
v 0.861269 0.085002 -0.471275
v 0.860611 0.085056 -0.480085
v 0.858718 0.084290 -0.487911
v 0.856007 0.083661 -0.494214
v 0.854195 0.087321 -0.493170
v 0.839456 0.077762 -0.513639
v 0.838770 0.085002 -0.510244
v 0.838035 0.091213 -0.505053
v 0.847218 0.070000 -0.510358
v 0.846824 0.078072 -0.508670
v 0.846031 0.085048 -0.505310
v 0.845234 0.090490 -0.500791
v 0.853773 0.070000 -0.503903
v 0.853207 0.077921 -0.502253
v 0.851895 0.084297 -0.499719
v 0.850781 0.088885 -0.496425
v 0.843336 0.098979 -0.479138
v 0.850292 0.095979 -0.475914
v 0.856406 0.091213 -0.473233
v 0.836614 0.098978 -0.490781
v 0.844243 0.097762 -0.487358
v 0.850946 0.094729 -0.484121
v 0.856295 0.090509 -0.481607
v 0.837300 0.095979 -0.498418
v 0.844778 0.094710 -0.494869
v 0.850847 0.092167 -0.491230
v 0.855305 0.088887 -0.488587
vn 0.5000 -0.0000 -0.8660
vn 0.5000 -0.0000 0.8660
vn -0.0000 -1.0000 -0.0000
vn -1.0000 -0.0000 -0.0000
vn 1.0000 -0.0000 -0.0000
vn -0.5000 -0.0000 0.8660
vn -0.0000 1.0000 -0.0000
vn -0.4416 -0.1915 -0.8766
vn -0.2549 -0.1854 -0.9490
vn -0.0836 -0.1773 -0.9806
vn -0.4043 -0.4123 -0.8164
vn -0.2273 -0.3876 -0.8934
vn -0.0741 -0.3648 -0.9281
vn -0.3459 -0.6066 -0.7159
vn -0.1851 -0.5570 -0.8096
vn -0.0634 -0.5076 -0.8592
vn 0.4416 -0.1915 -0.8766
vn 0.4054 -0.4129 -0.8156
vn 0.3462 -0.6067 -0.7156
vn 0.2552 -0.1868 -0.9487
vn 0.2276 -0.3881 -0.8931
vn 0.1856 -0.5566 -0.8098
vn 0.0836 -0.1777 -0.9805
vn 0.0736 -0.3651 -0.9281
vn 0.0634 -0.5076 -0.8593
vn -0.0000 -0.9731 -0.2303
vn -0.1391 -0.8939 -0.4261
vn -0.2569 -0.7695 -0.5847
vn 0.1379 -0.8938 -0.4268
vn -0.0003 -0.8073 -0.5901
vn -0.1104 -0.6968 -0.7087
vn 0.2566 -0.7694 -0.5850
vn 0.1104 -0.6963 -0.7092
vn -0.0000 -0.6240 -0.7814
vn -0.5383 -0.1915 -0.8207
vn -0.5036 -0.4129 -0.7588
vn -0.4466 -0.6067 -0.6576
vn -0.6940 -0.1868 -0.6953
vn -0.6597 -0.3881 -0.6436
vn -0.6085 -0.5566 -0.5656
vn -0.8073 -0.1777 -0.5627
vn -0.7669 -0.3651 -0.5278
vn -0.7124 -0.5076 -0.4846
vn -0.1994 -0.9731 -0.1151
vn -0.4385 -0.8939 -0.0925
vn -0.6348 -0.7695 -0.0699
vn -0.3007 -0.8938 -0.3328
vn -0.5112 -0.8073 -0.2948
vn -0.6689 -0.6968 -0.2587
vn -0.3783 -0.7694 -0.5147
vn -0.5590 -0.6963 -0.4502
vn -0.6767 -0.6240 -0.3907
vn -0.9799 -0.1915 -0.0559
vn -0.9493 -0.1854 -0.2538
vn -0.8910 -0.1773 -0.4179
vn -0.9092 -0.4123 -0.0580
vn -0.8873 -0.3876 -0.2499
vn -0.8408 -0.3648 -0.3999
vn -0.7929 -0.6066 -0.0584
vn -0.7937 -0.5569 -0.2445
vn -0.7758 -0.5076 -0.3747
vn -0.9799 -0.1915 0.0559
vn -0.9090 -0.4129 0.0567
vn -0.7928 -0.6067 0.0580
vn -0.9492 -0.1868 0.2534
vn -0.8872 -0.3881 0.2495
vn -0.7941 -0.5566 0.2442
vn -0.8910 -0.1777 0.4179
vn -0.8405 -0.3651 0.4003
vn -0.7759 -0.5076 0.3747
vn -0.1994 -0.9731 0.1151
vn -0.2994 -0.8939 0.3335
vn -0.3779 -0.7695 0.5148
vn -0.4386 -0.8938 0.0940
vn -0.5109 -0.8073 0.2953
vn -0.5585 -0.6969 0.4499
vn -0.6349 -0.7694 0.0703
vn -0.6694 -0.6963 0.2589
vn -0.6768 -0.6240 0.3907
vn -0.5383 -0.1915 0.8207
vn -0.6944 -0.1854 0.6952
vn -0.8074 -0.1773 0.5627
vn -0.5049 -0.4123 0.7584
vn -0.6600 -0.3876 0.6435
vn -0.7668 -0.3648 0.5282
vn -0.4470 -0.6066 0.6575
vn -0.6086 -0.5570 0.5652
vn -0.7124 -0.5076 0.4846
vn -0.4416 -0.1915 0.8766
vn -0.4054 -0.4129 0.8156
vn -0.3462 -0.6067 0.7156
vn -0.2552 -0.1868 0.9487
vn -0.2276 -0.3881 0.8931
vn -0.1856 -0.5566 0.8098
vn -0.0836 -0.1777 0.9805
vn -0.0736 -0.3651 0.9281
vn -0.0634 -0.5076 0.8593
vn -0.0000 -0.9731 0.2303
vn 0.1391 -0.8939 0.4261
vn 0.2569 -0.7695 0.5847
vn -0.1379 -0.8938 0.4268
vn 0.0003 -0.8073 0.5901
vn 0.1104 -0.6969 0.7087
vn -0.2566 -0.7694 0.5850
vn -0.1104 -0.6963 0.7092
vn -0.0000 -0.6240 0.7814
vn 0.4416 -0.1915 0.8766
vn 0.2549 -0.1854 0.9490
vn 0.0836 -0.1773 0.9806
vn 0.4043 -0.4123 0.8164
vn 0.2273 -0.3876 0.8934
vn 0.0741 -0.3648 0.9281
vn 0.3459 -0.6066 0.7159
vn 0.1851 -0.5570 0.8096
vn 0.0634 -0.5076 0.8592
vn 0.5383 -0.1915 0.8207
vn 0.5036 -0.4129 0.7588
vn 0.4466 -0.6067 0.6576
vn 0.6940 -0.1868 0.6953
vn 0.6597 -0.3881 0.6436
vn 0.6085 -0.5566 0.5656
vn 0.8073 -0.1777 0.5627
vn 0.7669 -0.3651 0.5278
vn 0.7124 -0.5076 0.4846
vn 0.1994 -0.9731 0.1151
vn 0.4385 -0.8939 0.0925
vn 0.6348 -0.7695 0.0699
vn 0.3007 -0.8938 0.3328
vn 0.5112 -0.8073 0.2948
vn 0.6689 -0.6968 0.2587
vn 0.3783 -0.7694 0.5147
vn 0.5590 -0.6963 0.4502
vn 0.6767 -0.6240 0.3907
vn 0.9799 -0.1915 0.0559
vn 0.9493 -0.1854 0.2538
vn 0.8910 -0.1773 0.4179
vn 0.9092 -0.4123 0.0580
vn 0.8873 -0.3876 0.2499
vn 0.8408 -0.3648 0.3999
vn 0.7929 -0.6066 0.0584
vn 0.7937 -0.5569 0.2445
vn 0.7758 -0.5076 0.3747
vn 0.9799 -0.1915 -0.0559
vn 0.9090 -0.4129 -0.0567
vn 0.7928 -0.6067 -0.0580
vn 0.9492 -0.1868 -0.2534
vn 0.8872 -0.3881 -0.2495
vn 0.7941 -0.5566 -0.2442
vn 0.8910 -0.1777 -0.4179
vn 0.8405 -0.3651 -0.4003
vn 0.7759 -0.5076 -0.3747
vn 0.1994 -0.9731 -0.1151
vn 0.2994 -0.8939 -0.3335
vn 0.3779 -0.7695 -0.5148
vn 0.4386 -0.8938 -0.0940
vn 0.5109 -0.8073 -0.2953
vn 0.5585 -0.6969 -0.4499
vn 0.6349 -0.7694 -0.0703
vn 0.6694 -0.6963 -0.2589
vn 0.6768 -0.6240 -0.3907
vn 0.5383 -0.1915 -0.8207
vn 0.6944 -0.1854 -0.6952
vn 0.8074 -0.1773 -0.5627
vn 0.5049 -0.4123 -0.7584
vn 0.6600 -0.3876 -0.6435
vn 0.7668 -0.3648 -0.5282
vn 0.4470 -0.6066 -0.6575
vn 0.6086 -0.5570 -0.5652
vn 0.7124 -0.5076 -0.4846
vn -0.4416 0.1915 -0.8766
vn -0.4054 0.4129 -0.8156
vn -0.3462 0.6067 -0.7156
vn -0.2552 0.1868 -0.9487
vn -0.2276 0.3881 -0.8931
vn -0.1856 0.5566 -0.8098
vn -0.0836 0.1777 -0.9805
vn -0.0736 0.3651 -0.9281
vn -0.0634 0.5076 -0.8593
vn -0.0000 0.9731 -0.2303
vn 0.1391 0.8939 -0.4261
vn 0.2569 0.7695 -0.5847
vn -0.1379 0.8938 -0.4268
vn 0.0003 0.8073 -0.5901
vn 0.1104 0.6969 -0.7087
vn -0.2566 0.7694 -0.5850
vn -0.1104 0.6963 -0.7092
vn -0.0000 0.6240 -0.7814
vn 0.4416 0.1915 -0.8766
vn 0.2549 0.1854 -0.9490
vn 0.0836 0.1773 -0.9806
vn 0.4043 0.4123 -0.8164
vn 0.2273 0.3876 -0.8934
vn 0.0741 0.3648 -0.9281
vn 0.3459 0.6066 -0.7159
vn 0.1851 0.5570 -0.8096
vn 0.0634 0.5076 -0.8592
vn -0.5383 0.1915 -0.8207
vn -0.6944 0.1854 -0.6952
vn -0.8074 0.1773 -0.5627
vn -0.5049 0.4123 -0.7584
vn -0.6600 0.3876 -0.6435
vn -0.7668 0.3648 -0.5282
vn -0.4470 0.6066 -0.6575
vn -0.6086 0.5570 -0.5652
vn -0.7124 0.5076 -0.4846
vn -0.9799 0.1915 -0.0559
vn -0.9090 0.4129 -0.0567
vn -0.7928 0.6067 -0.0580
vn -0.9492 0.1868 -0.2534
vn -0.8872 0.3881 -0.2495
vn -0.7941 0.5566 -0.2442
vn -0.8910 0.1777 -0.4179
vn -0.8405 0.3651 -0.4003
vn -0.7759 0.5076 -0.3747
vn -0.1994 0.9731 -0.1151
vn -0.2994 0.8939 -0.3335
vn -0.3779 0.7695 -0.5149
vn -0.4386 0.8938 -0.0940
vn -0.5109 0.8073 -0.2953
vn -0.5585 0.6968 -0.4499
vn -0.6349 0.7694 -0.0703
vn -0.6694 0.6963 -0.2589
vn -0.6768 0.6240 -0.3907
vn -0.9799 0.1915 0.0559
vn -0.9493 0.1854 0.2538
vn -0.8910 0.1773 0.4179
vn -0.9092 0.4123 0.0580
vn -0.8873 0.3876 0.2499
vn -0.8408 0.3648 0.3999
vn -0.7929 0.6066 0.0584
vn -0.7937 0.5569 0.2445
vn -0.7758 0.5076 0.3747
vn -0.5383 0.1915 0.8207
vn -0.5036 0.4129 0.7588
vn -0.4466 0.6067 0.6576
vn -0.6940 0.1868 0.6953
vn -0.6597 0.3881 0.6436
vn -0.6085 0.5566 0.5656
vn -0.8073 0.1777 0.5627
vn -0.7669 0.3651 0.5278
vn -0.7124 0.5076 0.4846
vn -0.1994 0.9731 0.1151
vn -0.4385 0.8939 0.0925
vn -0.6348 0.7695 0.0699
vn -0.3007 0.8938 0.3328
vn -0.5112 0.8073 0.2948
vn -0.6689 0.6968 0.2587
vn -0.3783 0.7694 0.5147
vn -0.5590 0.6963 0.4502
vn -0.6767 0.6240 0.3907
vn -0.4416 0.1915 0.8766
vn -0.2549 0.1854 0.9490
vn -0.0836 0.1773 0.9806
vn -0.4043 0.4123 0.8164
vn -0.2273 0.3876 0.8934
vn -0.0741 0.3648 0.9281
vn -0.3459 0.6066 0.7159
vn -0.1851 0.5570 0.8096
vn -0.0634 0.5076 0.8592
vn 0.4416 0.1915 0.8766
vn 0.4054 0.4129 0.8156
vn 0.3462 0.6067 0.7156
vn 0.2552 0.1868 0.9487
vn 0.2276 0.3881 0.8931
vn 0.1856 0.5566 0.8098
vn 0.0836 0.1777 0.9805
vn 0.0736 0.3651 0.9281
vn 0.0634 0.5076 0.8593
vn -0.0000 0.9731 0.2303
vn -0.1391 0.8939 0.4261
vn -0.2569 0.7695 0.5847
vn 0.1379 0.8938 0.4268
vn -0.0003 0.8073 0.5901
vn -0.1104 0.6968 0.7087
vn 0.2566 0.7694 0.5850
vn 0.1104 0.6963 0.7092
vn -0.0000 0.6240 0.7814
vn 0.5383 0.1915 0.8207
vn 0.6944 0.1854 0.6952
vn 0.8074 0.1773 0.5627
vn 0.5049 0.4123 0.7584
vn 0.6600 0.3876 0.6435
vn 0.7668 0.3648 0.5282
vn 0.4470 0.6066 0.6575
vn 0.6086 0.5570 0.5652
vn 0.7124 0.5076 0.4846
vn 0.9799 0.1915 0.0559
vn 0.9090 0.4129 0.0567
vn 0.7928 0.6067 0.0580
vn 0.9492 0.1868 0.2534
vn 0.8872 0.3881 0.2495
vn 0.7941 0.5566 0.2442
vn 0.8910 0.1777 0.4179
vn 0.8405 0.3651 0.4003
vn 0.7759 0.5076 0.3747
vn 0.1994 0.9731 0.1151
vn 0.2994 0.8939 0.3335
vn 0.3779 0.7695 0.5149
vn 0.4386 0.8938 0.0940
vn 0.5109 0.8073 0.2953
vn 0.5585 0.6968 0.4499
vn 0.6349 0.7694 0.0703
vn 0.6694 0.6963 0.2589
vn 0.6768 0.6240 0.3907
vn 0.9799 0.1915 -0.0559
vn 0.9493 0.1854 -0.2538
vn 0.8910 0.1773 -0.4179
vn 0.9092 0.4123 -0.0580
vn 0.8873 0.3876 -0.2499
vn 0.8408 0.3648 -0.3999
vn 0.7929 0.6066 -0.0584
vn 0.7937 0.5569 -0.2445
vn 0.7758 0.5076 -0.3747
vn 0.5383 0.1915 -0.8207
vn 0.5036 0.4129 -0.7588
vn 0.4466 0.6067 -0.6576
vn 0.6940 0.1868 -0.6953
vn 0.6597 0.3881 -0.6436
vn 0.6085 0.5566 -0.5656
vn 0.8073 0.1777 -0.5627
vn 0.7669 0.3651 -0.5278
vn 0.7124 0.5076 -0.4846
vn 0.1994 0.9731 -0.1151
vn 0.4385 0.8939 -0.0925
vn 0.6348 0.7695 -0.0699
vn 0.3007 0.8938 -0.3328
vn 0.5112 0.8073 -0.2948
vn 0.6689 0.6968 -0.2587
vn 0.3783 0.7694 -0.5147
vn 0.5590 0.6963 -0.4502
vn 0.6767 0.6240 -0.3907
vn -0.4912 -0.1864 -0.8508
vn -0.4554 -0.4130 -0.7887
vn -0.3937 -0.6165 -0.6819
vn -0.3074 -0.7887 -0.5324
vn -0.1980 -0.9183 -0.3429
vn -0.0692 -0.9904 -0.1198
vn -0.9825 -0.1865 -0.0000
vn -0.9107 -0.4130 -0.0000
vn -0.7874 -0.6165 -0.0000
vn -0.6148 -0.7887 -0.0000
vn -0.3959 -0.9183 -0.0000
vn -0.1384 -0.9904 -0.0000
vn -0.4912 -0.1864 0.8508
vn -0.4554 -0.4130 0.7887
vn -0.3937 -0.6165 0.6819
vn -0.3074 -0.7887 0.5324
vn -0.1980 -0.9183 0.3429
vn -0.0692 -0.9904 0.1198
vn 0.4912 -0.1864 0.8508
vn 0.4554 -0.4130 0.7887
vn 0.3937 -0.6165 0.6819
vn 0.3074 -0.7887 0.5324
vn 0.1980 -0.9183 0.3429
vn 0.0692 -0.9904 0.1198
vn 0.9825 -0.1865 -0.0000
vn 0.9107 -0.4130 -0.0000
vn 0.7874 -0.6165 -0.0000
vn 0.6148 -0.7887 -0.0000
vn 0.3959 -0.9183 -0.0000
vn 0.1384 -0.9904 -0.0000
vn 0.4912 -0.1864 -0.8508
vn 0.4554 -0.4130 -0.7887
vn 0.3937 -0.6165 -0.6819
vn 0.3074 -0.7887 -0.5324
vn 0.1980 -0.9183 -0.3429
vn 0.0692 -0.9904 -0.1198
vn -0.0692 0.9904 -0.1198
vn -0.1980 0.9183 -0.3429
vn -0.3074 0.7887 -0.5324
vn -0.3937 0.6165 -0.6819
vn -0.4554 0.4130 -0.7887
vn -0.4912 0.1864 -0.8508
vn -0.1384 0.9904 -0.0000
vn -0.3959 0.9183 -0.0000
vn -0.6148 0.7887 -0.0000
vn -0.7874 0.6165 -0.0000
vn -0.9107 0.4130 -0.0000
vn -0.9825 0.1865 -0.0000
vn -0.0692 0.9904 0.1198
vn -0.1980 0.9183 0.3429
vn -0.3074 0.7887 0.5324
vn -0.3937 0.6165 0.6819
vn -0.4554 0.4130 0.7887
vn -0.4912 0.1864 0.8508
vn 0.0692 0.9904 0.1198
vn 0.1980 0.9183 0.3429
vn 0.3074 0.7887 0.5324
vn 0.3937 0.6165 0.6819
vn 0.4554 0.4130 0.7887
vn 0.4912 0.1864 0.8508
vn 0.1384 0.9904 -0.0000
vn 0.3959 0.9183 -0.0000
vn 0.6148 0.7887 -0.0000
vn 0.7874 0.6165 -0.0000
vn 0.9107 0.4130 -0.0000
vn 0.9825 0.1865 -0.0000
vn 0.0692 0.9904 -0.1198
vn 0.1980 0.9183 -0.3429
vn 0.3074 0.7887 -0.5324
vn 0.3937 0.6165 -0.6819
vn 0.4554 0.4130 -0.7887
vn 0.4912 0.1864 -0.8508
vn 0.4555 -0.0000 0.8903
vn 0.2662 -0.0000 0.9639
vn 0.0874 -0.0000 0.9962
vn -0.0874 -0.0000 0.9962
vn -0.2662 -0.0000 0.9639
vn -0.4555 -0.0000 0.8903
vn -0.9987 -0.0000 0.0507
vn -0.9679 -0.0000 0.2514
vn -0.9064 -0.0000 0.4224
vn -0.8190 -0.0000 0.5738
vn -0.7017 -0.0000 0.7125
vn -0.5433 -0.0000 0.8396
vn -0.9987 -0.0000 -0.0507
vn -0.9679 -0.0000 -0.2514
vn -0.9064 -0.0000 -0.4224
vn -0.8190 -0.0000 -0.5738
vn -0.7017 -0.0000 -0.7125
vn -0.5433 -0.0000 -0.8396
vn 0.4555 -0.0000 -0.8903
vn 0.2662 -0.0000 -0.9639
vn 0.0874 -0.0000 -0.9962
vn -0.0874 -0.0000 -0.9962
vn -0.2662 -0.0000 -0.9639
vn -0.4555 -0.0000 -0.8903
vn 0.9987 -0.0000 -0.0507
vn 0.9679 -0.0000 -0.2514
vn 0.9064 -0.0000 -0.4224
vn 0.8190 -0.0000 -0.5738
vn 0.7017 -0.0000 -0.7125
vn 0.5433 -0.0000 -0.8396
vn 0.9987 -0.0000 0.0507
vn 0.9679 -0.0000 0.2514
vn 0.9064 -0.0000 0.4224
vn 0.8190 -0.0000 0.5738
vn 0.7017 -0.0000 0.7125
vn 0.5433 -0.0000 0.8396
vn -0.5000 -0.0000 -0.8660
vt 0.920022 0.757500
vt 0.512990 0.992500
vt 0.512990 0.992500
vt 0.920022 0.757500
vt 0.512990 0.007500
vt 0.920022 0.242500
vt 0.920022 0.242500
vt 0.512990 0.007500
vt 0.500000 0.982679
vt 0.918013 0.741340
vt 0.918013 0.258660
vt 0.500000 0.017321
vt 0.081987 0.258660
vt 0.081987 0.741340
vt 0.066987 0.735000
vt 0.066987 0.265000
vt 0.066987 0.265000
vt 0.066987 0.735000
vt 0.933013 0.265000
vt 0.933013 0.735000
vt 0.079978 0.242500
vt 0.487010 0.007500
vt 0.487010 0.007500
vt 0.079978 0.242500
vt 0.081987 0.258660
vt 0.500000 0.017321
vt 0.918013 0.258660
vt 0.918013 0.741340
vt 0.487010 0.992500
vt 0.490705 0.994633
vt 0.490953 0.994777
vt 0.487084 0.992543
vt 0.494560 0.996859
vt 0.494699 0.996939
vt 0.500000 1.000000
vt 0.491377 0.995021
vt 0.487562 0.992819
vt 0.494765 0.996978
vt 0.492035 0.995402
vt 0.488410 0.993308
vt 0.495058 0.997147
vt 0.500000 0.998862
vt 0.512916 0.992543
vt 0.509078 0.994759
vt 0.509295 0.994633
vt 0.512438 0.992819
vt 0.508647 0.995007
vt 0.511590 0.993308
vt 0.507968 0.995400
vt 0.505294 0.996943
vt 0.505440 0.996859
vt 0.505238 0.996976
vt 0.504942 0.997146
vt 0.496639 0.984960
vt 0.499971 0.987407
vt 0.503361 0.984960
vt 0.493504 0.987166
vt 0.496894 0.989501
vt 0.488410 0.993308
vt 0.503090 0.989517
vt 0.506496 0.987166
vt 0.499997 0.991235
vt 0.511590 0.993308
vt 0.079978 0.757500
vt 0.079904 0.757457
vt 0.076065 0.755241
vt 0.076283 0.755367
vt 0.079426 0.757181
vt 0.075635 0.754993
vt 0.078578 0.756692
vt 0.074955 0.754600
vt 0.072282 0.753057
vt 0.072427 0.753141
vt 0.072225 0.753024
vt 0.071930 0.752854
vt 0.066987 0.750000
vt 0.067973 0.749431
vt 0.078332 0.739569
vt 0.077879 0.743679
vt 0.081693 0.745390
vt 0.074854 0.737957
vt 0.074527 0.742061
vt 0.066987 0.736617
vt 0.066987 0.740803
vt 0.077611 0.747434
vt 0.081350 0.749209
vt 0.074577 0.745615
vt 0.066987 0.744294
vt 0.078578 0.756692
vt 0.066987 0.739267
vt 0.066987 0.739554
vt 0.066987 0.735086
vt 0.066987 0.743719
vt 0.066987 0.743879
vt 0.066987 0.740043
vt 0.066987 0.735637
vt 0.066987 0.743955
vt 0.066987 0.264914
vt 0.066987 0.260482
vt 0.066987 0.260733
vt 0.066987 0.264363
vt 0.066987 0.259985
vt 0.066987 0.263383
vt 0.066987 0.259201
vt 0.066987 0.256113
vt 0.066987 0.256281
vt 0.066987 0.256048
vt 0.066987 0.255707
vt 0.066987 0.250000
vt 0.067973 0.250569
vt 0.081693 0.254609
vt 0.077907 0.256272
vt 0.078332 0.260431
vt 0.081350 0.250791
vt 0.077633 0.252560
vt 0.078578 0.243308
vt 0.074952 0.245402
vt 0.074521 0.257917
vt 0.074854 0.262043
vt 0.074580 0.254380
vt 0.071929 0.247147
vt 0.076283 0.244633
vt 0.076034 0.244777
vt 0.079904 0.242543
vt 0.072427 0.246859
vt 0.072288 0.246939
vt 0.075611 0.245021
vt 0.079426 0.242819
vt 0.072222 0.246978
vt 0.487084 0.007457
vt 0.490922 0.005241
vt 0.490705 0.005367
vt 0.487562 0.007181
vt 0.491353 0.004993
vt 0.488410 0.006692
vt 0.492032 0.004600
vt 0.494706 0.003057
vt 0.494560 0.003141
vt 0.494762 0.003024
vt 0.495058 0.002853
vt 0.500000 0.000000
vt 0.500000 0.001138
vt 0.503361 0.015040
vt 0.500029 0.012593
vt 0.496639 0.015040
vt 0.506496 0.012834
vt 0.503106 0.010499
vt 0.511590 0.006692
vt 0.507965 0.004598
vt 0.496910 0.010483
vt 0.493504 0.012834
vt 0.500003 0.008765
vt 0.504942 0.002853
vt 0.488410 0.006692
vt 0.509295 0.005367
vt 0.509047 0.005223
vt 0.512916 0.007457
vt 0.505440 0.003141
vt 0.505301 0.003061
vt 0.508623 0.004979
vt 0.512438 0.007181
vt 0.505235 0.003022
vt 0.511590 0.006692
vt 0.920096 0.242543
vt 0.923935 0.244759
vt 0.923717 0.244633
vt 0.920574 0.242819
vt 0.924365 0.245007
vt 0.921422 0.243308
vt 0.925045 0.245400
vt 0.927718 0.246943
vt 0.927573 0.246859
vt 0.927775 0.246976
vt 0.928070 0.247147
vt 0.933013 0.250000
vt 0.932027 0.250569
vt 0.921668 0.260431
vt 0.922122 0.256321
vt 0.918307 0.254609
vt 0.925146 0.262043
vt 0.925473 0.257939
vt 0.933013 0.263383
vt 0.933013 0.259197
vt 0.922389 0.252566
vt 0.918650 0.250791
vt 0.925423 0.254385
vt 0.933013 0.255706
vt 0.933013 0.260733
vt 0.933013 0.260446
vt 0.933013 0.264914
vt 0.933013 0.256281
vt 0.933013 0.256121
vt 0.933013 0.259957
vt 0.933013 0.264363
vt 0.933013 0.256045
vt 0.933013 0.735086
vt 0.933013 0.739518
vt 0.933013 0.739267
vt 0.933013 0.735637
vt 0.933013 0.740015
vt 0.933013 0.736617
vt 0.933013 0.740799
vt 0.933013 0.743887
vt 0.933013 0.743719
vt 0.933013 0.743952
vt 0.933013 0.744293
vt 0.933013 0.750000
vt 0.932027 0.749431
vt 0.918307 0.745391
vt 0.922093 0.743728
vt 0.921668 0.739569
vt 0.918650 0.749209
vt 0.922367 0.747440
vt 0.921422 0.756692
vt 0.925048 0.754598
vt 0.925479 0.742082
vt 0.925146 0.737957
vt 0.925420 0.745620
vt 0.928071 0.752853
vt 0.923717 0.755367
vt 0.923966 0.755223
vt 0.920096 0.757457
vt 0.927573 0.753141
vt 0.927711 0.753061
vt 0.924389 0.754979
vt 0.920574 0.757181
vt 0.927778 0.753022
vt 0.487010 0.992500
vt 0.487084 0.992543
vt 0.490922 0.994759
vt 0.491353 0.995007
vt 0.492032 0.995400
vt 0.494706 0.996943
vt 0.494762 0.996976
vt 0.495058 0.997147
vt 0.503361 0.984960
vt 0.500029 0.987407
vt 0.496639 0.984960
vt 0.506496 0.987166
vt 0.503106 0.989501
vt 0.507965 0.995402
vt 0.496910 0.989517
vt 0.493504 0.987166
vt 0.500003 0.991235
vt 0.504942 0.997147
vt 0.509295 0.994633
vt 0.509047 0.994777
vt 0.512916 0.992543
vt 0.505301 0.996939
vt 0.508623 0.995021
vt 0.512438 0.992819
vt 0.505235 0.996978
vt 0.079978 0.757500
vt 0.076283 0.755367
vt 0.076034 0.755223
vt 0.079904 0.757457
vt 0.072427 0.753141
vt 0.072288 0.753061
vt 0.075611 0.754979
vt 0.079426 0.757181
vt 0.072222 0.753022
vt 0.074952 0.754598
vt 0.078578 0.756692
vt 0.071929 0.752853
vt 0.067973 0.749431
vt 0.066987 0.739518
vt 0.066987 0.735637
vt 0.066987 0.740015
vt 0.066987 0.740799
vt 0.066987 0.743887
vt 0.066987 0.743719
vt 0.066987 0.743952
vt 0.066987 0.744293
vt 0.081693 0.745391
vt 0.077907 0.743728
vt 0.078332 0.739569
vt 0.081350 0.749209
vt 0.077633 0.747440
vt 0.074521 0.742082
vt 0.074854 0.737957
vt 0.074580 0.745620
vt 0.066987 0.260733
vt 0.066987 0.260446
vt 0.066987 0.264914
vt 0.066987 0.256281
vt 0.066987 0.256121
vt 0.066987 0.259957
vt 0.066987 0.264363
vt 0.066987 0.256045
vt 0.066987 0.259197
vt 0.066987 0.255706
vt 0.079904 0.242543
vt 0.076065 0.244759
vt 0.079426 0.242819
vt 0.075635 0.245007
vt 0.074955 0.245400
vt 0.072282 0.246943
vt 0.072225 0.246976
vt 0.071930 0.247146
vt 0.077879 0.256321
vt 0.081693 0.254609
vt 0.074854 0.262043
vt 0.074527 0.257939
vt 0.077611 0.252566
vt 0.074577 0.254385
vt 0.078578 0.243308
vt 0.490705 0.005367
vt 0.490953 0.005223
vt 0.487084 0.007457
vt 0.494560 0.003141
vt 0.494699 0.003061
vt 0.491377 0.004979
vt 0.487562 0.007181
vt 0.494765 0.003022
vt 0.492035 0.004598
vt 0.495058 0.002853
vt 0.509078 0.005241
vt 0.509295 0.005367
vt 0.508647 0.004993
vt 0.507968 0.004600
vt 0.505294 0.003057
vt 0.505238 0.003024
vt 0.504942 0.002853
vt 0.496639 0.015040
vt 0.499971 0.012593
vt 0.503361 0.015040
vt 0.493504 0.012834
vt 0.496894 0.010499
vt 0.503090 0.010483
vt 0.506496 0.012834
vt 0.499997 0.008765
vt 0.511590 0.006692
vt 0.923717 0.244633
vt 0.923966 0.244777
vt 0.920096 0.242543
vt 0.927573 0.246859
vt 0.927711 0.246939
vt 0.924389 0.245021
vt 0.920574 0.242819
vt 0.927778 0.246978
vt 0.925048 0.245402
vt 0.921422 0.243308
vt 0.928071 0.247147
vt 0.933013 0.264914
vt 0.933013 0.260482
vt 0.933013 0.260733
vt 0.933013 0.259985
vt 0.933013 0.259201
vt 0.933013 0.256113
vt 0.933013 0.256048
vt 0.933013 0.255707
vt 0.918307 0.254609
vt 0.922093 0.256272
vt 0.921668 0.260431
vt 0.918650 0.250791
vt 0.922367 0.252560
vt 0.925479 0.257917
vt 0.925146 0.262043
vt 0.925420 0.254380
vt 0.933013 0.739267
vt 0.933013 0.739553
vt 0.933013 0.735085
vt 0.933013 0.743719
vt 0.933013 0.743879
vt 0.933013 0.740043
vt 0.933013 0.743955
vt 0.933013 0.740803
vt 0.933013 0.744294
vt 0.920096 0.757457
vt 0.923935 0.755241
vt 0.923717 0.755367
vt 0.920574 0.757181
vt 0.924365 0.754993
vt 0.925045 0.754600
vt 0.927718 0.753057
vt 0.927573 0.753141
vt 0.927775 0.753024
vt 0.928070 0.752854
vt 0.921668 0.739569
vt 0.922121 0.743679
vt 0.918307 0.745391
vt 0.925146 0.737957
vt 0.925473 0.742061
vt 0.922389 0.747434
vt 0.918650 0.749209
vt 0.925423 0.745615
vt 0.488410 0.993308
vt 0.078578 0.756692
vt 0.488410 0.006692
vt 0.511590 0.006692
vt 0.511590 0.993308
vt 0.511590 0.006692
s 0
f 188/1/1 2/2/1 225/3/1 409/4/1
f 114/5/2 149/6/2 371/7/2 335/8/2
f 3/9/3 187/10/3 150/11/3 113/12/3 76/13/3 39/14/3
f 40/15/4 75/16/4 297/17/4 261/18/4
f 151/19/5 186/20/5 408/20/5 372/19/5
f 77/21/6 112/22/6 334/23/6 298/24/6
f 224/9/7 262/14/7 299/25/7 336/26/7 373/27/7 410/28/7
f 1/29/8 4/30/8 8/31/8 7/32/8
f 4/30/9 5/33/9 9/34/9 8/31/9
f 5/33/10 6/35/10 10/35/10 9/34/10
f 7/32/11 8/31/11 12/36/11 11/37/11
f 8/31/12 9/34/12 13/38/12 12/36/12
f 9/34/13 10/35/13 14/35/13 13/38/13
f 11/37/14 12/36/14 33/39/14 29/40/14
f 12/36/15 13/38/15 37/41/15 33/39/15
f 13/38/16 14/35/16 15/42/16 37/41/16
f 2/2/17 16/43/17 20/44/17 19/45/17
f 16/43/18 17/46/18 21/47/18 20/44/18
f 17/46/19 18/48/19 22/49/19 21/47/19
f 19/45/20 20/44/20 24/50/20 23/51/20
f 20/44/21 21/47/21 25/52/21 24/50/21
f 21/47/22 22/49/22 26/53/22 25/52/22
f 23/51/23 24/50/23 10/35/23 6/35/23
f 24/50/24 25/52/24 14/35/24 10/35/24
f 25/52/25 26/53/25 15/42/25 14/35/25
f 3/9/26 27/54/26 31/55/26 30/56/26
f 27/54/27 28/57/27 32/58/27 31/55/27
f 28/57/28 29/59/28 33/39/28 32/58/28
f 30/56/29 31/55/29 35/60/29 34/61/29
f 31/55/30 32/58/30 36/62/30 35/60/30
f 32/58/31 33/39/31 37/41/31 36/62/31
f 34/61/32 35/60/32 22/49/32 18/63/32
f 35/60/33 36/62/33 26/53/33 22/49/33
f 36/62/34 37/41/34 15/42/34 26/53/34
f 38/64/35 41/65/35 45/66/35 44/67/35
f 41/65/36 42/68/36 46/69/36 45/66/36
f 42/68/37 43/70/37 47/71/37 46/69/37
f 44/67/38 45/66/38 49/72/38 48/73/38
f 45/66/39 46/69/39 50/74/39 49/72/39
f 46/69/40 47/71/40 51/75/40 50/74/40
f 48/73/41 49/72/41 70/76/41 66/76/41
f 49/72/42 50/74/42 74/76/42 70/76/42
f 50/74/43 51/75/43 52/77/43 74/76/43
f 39/14/44 53/78/44 57/79/44 56/80/44
f 53/78/45 54/81/45 58/82/45 57/79/45
f 54/81/46 55/83/46 59/84/46 58/82/46
f 56/80/47 57/79/47 61/85/47 60/86/47
f 57/79/48 58/82/48 62/87/48 61/85/48
f 58/82/49 59/84/49 63/88/49 62/87/49
f 60/86/50 61/85/50 47/71/50 43/89/50
f 61/85/51 62/87/51 51/75/51 47/71/51
f 62/87/52 63/88/52 52/77/52 51/75/52
f 40/15/53 64/90/53 68/91/53 67/92/53
f 64/90/54 65/93/54 69/94/54 68/91/54
f 65/93/55 66/76/55 70/76/55 69/94/55
f 67/92/56 68/91/56 72/95/56 71/96/56
f 68/91/57 69/94/57 73/97/57 72/95/57
f 69/94/58 70/76/58 74/76/58 73/97/58
f 71/96/59 72/95/59 59/84/59 55/83/59
f 72/95/60 73/97/60 63/88/60 59/84/60
f 73/97/61 74/76/61 52/77/61 63/88/61
f 75/16/62 78/98/62 82/99/62 81/100/62
f 78/98/63 79/101/63 83/102/63 82/99/63
f 79/101/64 80/103/64 84/104/64 83/102/64
f 81/100/65 82/99/65 86/105/65 85/106/65
f 82/99/66 83/102/66 87/107/66 86/105/66
f 83/102/67 84/104/67 88/108/67 87/107/67
f 85/106/68 86/105/68 107/109/68 103/109/68
f 86/105/69 87/107/69 111/109/69 107/109/69
f 87/107/70 88/108/70 89/110/70 111/109/70
f 76/13/71 90/111/71 94/112/71 93/113/71
f 90/111/72 91/114/72 95/115/72 94/112/72
f 91/114/73 92/116/73 96/117/73 95/115/73
f 93/113/74 94/112/74 98/118/74 97/119/74
f 94/112/75 95/115/75 99/120/75 98/118/75
f 95/115/76 96/117/76 100/121/76 99/120/76
f 97/119/77 98/118/77 84/104/77 80/103/77
f 98/118/78 99/120/78 88/108/78 84/104/78
f 99/120/79 100/121/79 89/110/79 88/108/79
f 77/21/80 101/122/80 105/123/80 104/124/80
f 101/122/81 102/125/81 106/126/81 105/123/81
f 102/125/82 103/109/82 107/109/82 106/126/82
f 104/124/83 105/123/83 109/127/83 108/128/83
f 105/123/84 106/126/84 110/129/84 109/127/84
f 106/126/85 107/109/85 111/109/85 110/129/85
f 108/128/86 109/127/86 96/117/86 92/116/86
f 109/127/87 110/129/87 100/121/87 96/117/87
f 110/129/88 111/109/88 89/110/88 100/121/88
f 112/22/89 115/130/89 119/131/89 118/132/89
f 115/130/90 116/133/90 120/134/90 119/131/90
f 116/133/91 117/135/91 121/136/91 120/134/91
f 118/132/92 119/131/92 123/137/92 122/138/92
f 119/131/93 120/134/93 124/139/93 123/137/93
f 120/134/94 121/136/94 125/140/94 124/139/94
f 122/138/95 123/137/95 144/141/95 140/141/95
f 123/137/96 124/139/96 148/141/96 144/141/96
f 124/139/97 125/140/97 126/142/97 148/141/97
f 113/12/98 127/143/98 131/144/98 130/145/98
f 127/143/99 128/146/99 132/147/99 131/144/99
f 128/146/100 129/148/100 133/149/100 132/147/100
f 130/145/101 131/144/101 135/150/101 134/151/101
f 131/144/102 132/147/102 136/152/102 135/150/102
f 132/147/103 133/149/103 137/153/103 136/152/103
f 134/151/104 135/150/104 121/136/104 117/154/104
f 135/150/105 136/152/105 125/140/105 121/136/105
f 136/152/106 137/153/106 126/142/106 125/140/106
f 114/5/107 138/155/107 142/156/107 141/157/107
f 138/155/108 139/158/108 143/159/108 142/156/108
f 139/158/109 140/141/109 144/141/109 143/159/109
f 141/157/110 142/156/110 146/160/110 145/161/110
f 142/156/111 143/159/111 147/162/111 146/160/111
f 143/159/112 144/141/112 148/141/112 147/162/112
f 145/161/113 146/160/113 133/149/113 129/163/113
f 146/160/114 147/162/114 137/153/114 133/149/114
f 147/162/115 148/141/115 126/142/115 137/153/115
f 149/6/116 152/164/116 156/165/116 155/166/116
f 152/164/117 153/167/117 157/168/117 156/165/117
f 153/167/118 154/169/118 158/170/118 157/168/118
f 155/166/119 156/165/119 160/171/119 159/172/119
f 156/165/120 157/168/120 161/173/120 160/171/120
f 157/168/121 158/170/121 162/174/121 161/173/121
f 159/172/122 160/171/122 181/175/122 177/175/122
f 160/171/123 161/173/123 185/175/123 181/175/123
f 161/173/124 162/174/124 163/176/124 185/175/124
f 150/11/125 164/177/125 168/178/125 167/179/125
f 164/177/126 165/180/126 169/181/126 168/178/126
f 165/180/127 166/182/127 170/183/127 169/181/127
f 167/179/128 168/178/128 172/184/128 171/185/128
f 168/178/129 169/181/129 173/186/129 172/184/129
f 169/181/130 170/183/130 174/187/130 173/186/130
f 171/185/131 172/184/131 158/170/131 154/169/131
f 172/184/132 173/186/132 162/174/132 158/170/132
f 173/186/133 174/187/133 163/176/133 162/174/133
f 151/19/134 175/188/134 179/189/134 178/190/134
f 175/188/135 176/191/135 180/192/135 179/189/135
f 176/191/136 177/175/136 181/175/136 180/192/136
f 178/190/137 179/189/137 183/193/137 182/194/137
f 179/189/138 180/192/138 184/195/138 183/193/138
f 180/192/139 181/175/139 185/175/139 184/195/139
f 182/194/140 183/193/140 170/183/140 166/182/140
f 183/193/141 184/195/141 174/187/141 170/183/141
f 184/195/142 185/175/142 163/176/142 174/187/142
f 186/20/143 189/196/143 193/197/143 192/198/143
f 189/196/144 190/199/144 194/200/144 193/197/144
f 190/199/145 191/201/145 195/202/145 194/200/145
f 192/198/146 193/197/146 197/203/146 196/204/146
f 193/197/147 194/200/147 198/205/147 197/203/147
f 194/200/148 195/202/148 199/206/148 198/205/148
f 196/204/149 197/203/149 218/207/149 214/207/149
f 197/203/150 198/205/150 222/207/150 218/207/150
f 198/205/151 199/206/151 200/208/151 222/207/151
f 187/10/152 201/209/152 205/210/152 204/211/152
f 201/209/153 202/212/153 206/213/153 205/210/153
f 202/212/154 203/214/154 207/215/154 206/213/154
f 204/211/155 205/210/155 209/216/155 208/217/155
f 205/210/156 206/213/156 210/218/156 209/216/156
f 206/213/157 207/215/157 211/219/157 210/218/157
f 208/217/158 209/216/158 195/202/158 191/201/158
f 209/216/159 210/218/159 199/206/159 195/202/159
f 210/218/160 211/219/160 200/208/160 199/206/160
f 188/1/161 212/220/161 216/221/161 215/222/161
f 212/220/162 213/223/162 217/224/162 216/221/162
f 213/223/163 214/207/163 218/207/163 217/224/163
f 215/222/164 216/221/164 220/225/164 219/226/164
f 216/221/165 217/224/165 221/227/165 220/225/165
f 217/224/166 218/207/166 222/207/166 221/227/166
f 219/226/167 220/225/167 207/215/167 203/214/167
f 220/225/168 221/227/168 211/219/168 207/215/168
f 221/227/169 222/207/169 200/208/169 211/219/169
f 223/228/170 226/229/170 230/230/170 229/30/170
f 226/229/171 227/37/171 231/231/171 230/230/171
f 227/37/172 228/59/172 232/232/172 231/231/172
f 229/30/173 230/230/173 234/233/173 233/33/173
f 230/230/174 231/231/174 235/234/174 234/233/174
f 231/231/175 232/232/175 236/235/175 235/234/175
f 233/33/176 234/233/176 255/35/176 251/35/176
f 234/233/177 235/234/177 259/35/177 255/35/177
f 235/234/178 236/235/178 237/42/178 259/35/178
f 224/9/179 238/236/179 242/237/179 241/238/179
f 238/236/180 239/239/180 243/240/180 242/237/180
f 239/239/181 240/48/181 244/241/181 243/240/181
f 241/238/182 242/237/182 246/242/182 245/243/182
f 242/237/183 243/240/183 247/244/183 246/242/183
f 243/240/184 244/241/184 248/245/184 247/244/184
f 245/243/185 246/242/185 232/232/185 228/40/185
f 246/242/186 247/244/186 236/235/186 232/232/186
f 247/244/187 248/245/187 237/42/187 236/235/187
f 225/3/188 249/246/188 253/247/188 252/248/188
f 249/246/189 250/51/189 254/249/189 253/247/189
f 250/51/190 251/35/190 255/35/190 254/249/190
f 252/248/191 253/247/191 257/250/191 256/251/191
f 253/247/192 254/249/192 258/252/192 257/250/192
f 254/249/193 255/35/193 259/35/193 258/252/193
f 256/251/194 257/250/194 244/241/194 240/63/194
f 257/250/195 258/252/195 248/245/195 244/241/195
f 258/252/196 259/35/196 237/42/196 248/245/196
f 260/253/197 263/254/197 267/255/197 266/256/197
f 263/254/198 264/257/198 268/258/198 267/255/198
f 264/257/199 265/76/199 269/76/199 268/258/199
f 266/256/200 267/255/200 271/259/200 270/260/200
f 267/255/201 268/258/201 272/261/201 271/259/201
f 268/258/202 269/76/202 273/76/202 272/261/202
f 270/260/203 271/259/203 292/262/203 288/263/203
f 271/259/204 272/261/204 296/264/204 292/262/204
f 272/261/205 273/76/205 274/265/205 296/264/205
f 261/18/206 275/92/206 279/266/206 278/90/206
f 275/92/207 276/267/207 280/268/207 279/266/207
f 276/267/208 277/83/208 281/269/208 280/268/208
f 278/90/209 279/266/209 283/270/209 282/271/209
f 279/266/210 280/268/210 284/272/210 283/270/210
f 280/268/211 281/269/211 285/273/211 284/272/211
f 282/271/212 283/270/212 269/76/212 265/76/212
f 283/270/213 284/272/213 273/76/213 269/76/213
f 284/272/214 285/273/214 274/265/214 273/76/214
f 262/14/215 286/274/215 290/275/215 289/276/215
f 286/274/216 287/277/216 291/278/216 290/275/216
f 287/277/217 288/263/217 292/262/217 291/278/217
f 289/276/218 290/275/218 294/279/218 293/280/218
f 290/275/219 291/278/219 295/281/219 294/279/219
f 291/278/220 292/262/220 296/264/220 295/281/220
f 293/280/221 294/279/221 281/269/221 277/83/221
f 294/279/222 295/281/222 285/273/222 281/269/222
f 295/281/223 296/264/223 274/265/223 285/273/223
f 297/17/224 300/282/224 304/283/224 303/284/224
f 300/282/225 301/285/225 305/286/225 304/283/225
f 301/285/226 302/109/226 306/109/226 305/286/226
f 303/284/227 304/283/227 308/287/227 307/288/227
f 304/283/228 305/286/228 309/289/228 308/287/228
f 305/286/229 306/109/229 310/109/229 309/289/229
f 307/288/230 308/287/230 329/290/230 325/103/230
f 308/287/231 309/289/231 333/291/231 329/290/231
f 309/289/232 310/109/232 311/110/232 333/291/232
f 298/24/233 312/292/233 316/293/233 315/122/233
f 312/292/234 313/294/234 317/295/234 316/293/234
f 313/294/235 314/116/235 318/296/235 317/295/235
f 315/122/236 316/293/236 320/297/236 319/125/236
f 316/293/237 317/295/237 321/298/237 320/297/237
f 317/295/238 318/296/238 322/299/238 321/298/238
f 319/125/239 320/297/239 306/109/239 302/109/239
f 320/297/240 321/298/240 310/109/240 306/109/240
f 321/298/241 322/299/241 311/110/241 310/109/241
f 299/25/242 323/113/242 327/300/242 326/301/242
f 323/113/243 324/302/243 328/303/243 327/300/243
f 324/302/244 325/103/244 329/290/244 328/303/244
f 326/301/245 327/300/245 331/304/245 330/114/245
f 327/300/246 328/303/246 332/305/246 331/304/246
f 328/303/247 329/290/247 333/291/247 332/305/247
f 330/114/248 331/304/248 318/296/248 314/306/248
f 331/304/249 332/305/249 322/299/249 318/296/249
f 332/305/250 333/291/250 311/110/250 322/299/250
f 334/23/251 337/307/251 341/308/251 340/309/251
f 337/307/252 338/310/252 342/311/252 341/308/252
f 338/310/253 339/141/253 343/141/253 342/311/253
f 340/309/254 341/308/254 345/312/254 344/313/254
f 341/308/255 342/311/255 346/314/255 345/312/255
f 342/311/256 343/141/256 347/141/256 346/314/256
f 344/313/257 345/312/257 366/315/257 362/154/257
f 345/312/258 346/314/258 370/316/258 366/315/258
f 346/314/259 347/141/259 348/142/259 370/316/259
f 335/8/260 349/157/260 353/317/260 352/318/260
f 349/157/261 350/161/261 354/319/261 353/317/261
f 350/161/262 351/148/262 355/320/262 354/319/262
f 352/318/263 353/317/263 357/321/263 356/158/263
f 353/317/264 354/319/264 358/322/264 357/321/264
f 354/319/265 355/320/265 359/323/265 358/322/265
f 356/158/266 357/321/266 343/141/266 339/141/266
f 357/321/267 358/322/267 347/141/267 343/141/267
f 358/322/268 359/323/268 348/142/268 347/141/268
f 336/26/269 360/324/269 364/325/269 363/326/269
f 360/324/270 361/327/270 365/328/270 364/325/270
f 361/327/271 362/135/271 366/315/271 365/328/271
f 363/326/272 364/325/272 368/329/272 367/330/272
f 364/325/273 365/328/273 369/331/273 368/329/273
f 365/328/274 366/315/274 370/316/274 369/331/274
f 367/330/275 368/329/275 355/320/275 351/332/275
f 368/329/276 369/331/276 359/323/276 355/320/276
f 369/331/277 370/316/277 348/142/277 359/323/277
f 371/7/278 374/333/278 378/334/278 377/335/278
f 374/333/279 375/336/279 379/337/279 378/334/279
f 375/336/280 376/175/280 380/175/280 379/337/280
f 377/335/281 378/334/281 382/338/281 381/339/281
f 378/334/282 379/337/282 383/340/282 382/338/282
f 379/337/283 380/175/283 384/175/283 383/340/283
f 381/339/284 382/338/284 403/341/284 399/342/284
f 382/338/285 383/340/285 407/343/285 403/341/285
f 383/340/286 384/175/286 385/176/286 407/343/286
f 372/19/287 386/344/287 390/345/287 389/346/287
f 386/344/288 387/194/288 391/347/288 390/345/288
f 387/194/289 388/182/289 392/348/289 391/347/289
f 389/346/290 390/345/290 394/349/290 393/191/290
f 390/345/291 391/347/291 395/350/291 394/349/291
f 391/347/292 392/348/292 396/351/292 395/350/292
f 393/191/293 394/349/293 380/175/293 376/175/293
f 394/349/294 395/350/294 384/175/294 380/175/294
f 395/350/295 396/351/295 385/176/295 384/175/295
f 373/27/296 397/352/296 401/353/296 400/354/296
f 397/352/297 398/355/297 402/356/297 401/353/297
f 398/355/298 399/342/298 403/341/298 402/356/298
f 400/354/299 401/353/299 405/357/299 404/358/299
f 401/353/300 402/356/300 406/359/300 405/357/300
f 402/356/301 403/341/301 407/343/301 406/359/301
f 404/358/302 405/357/302 392/348/302 388/182/302
f 405/357/303 406/359/303 396/351/303 392/348/303
f 406/359/304 407/343/304 385/176/304 396/351/304
f 408/20/305 411/360/305 415/361/305 414/362/305
f 411/360/306 412/363/306 416/364/306 415/361/306
f 412/363/307 413/207/307 417/207/307 416/364/307
f 414/362/308 415/361/308 419/365/308 418/199/308
f 415/361/309 416/364/309 420/366/309 419/365/309
f 416/364/310 417/207/310 421/207/310 420/366/310
f 418/199/311 419/365/311 440/367/311 436/201/311
f 419/365/312 420/366/312 444/368/312 440/367/312
f 420/366/313 421/207/313 422/208/313 444/368/313
f 409/4/314 423/369/314 427/370/314 426/371/314
f 423/369/315 424/372/315 428/373/315 427/370/315
f 424/372/316 425/214/316 429/374/316 428/373/316
f 426/371/317 427/370/317 431/375/317 430/376/317
f 427/370/318 428/373/318 432/377/318 431/375/318
f 428/373/319 429/374/319 433/378/319 432/377/319
f 430/376/320 431/375/320 417/207/320 413/207/320
f 431/375/321 432/377/321 421/207/321 417/207/321
f 432/377/322 433/378/322 422/208/322 421/207/322
f 410/28/323 434/379/323 438/380/323 437/381/323
f 434/379/324 435/382/324 439/383/324 438/380/324
f 435/382/325 436/201/325 440/367/325 439/383/325
f 437/381/326 438/380/326 442/384/326 441/385/326
f 438/380/327 439/383/327 443/386/327 442/384/327
f 439/383/328 440/367/328 444/368/328 443/386/328
f 441/385/329 442/384/329 429/374/329 425/214/329
f 442/384/330 443/386/330 433/378/330 429/374/330
f 443/386/331 444/368/331 422/208/331 433/378/331
f 38/64/332 1/29/332 7/32/332 41/65/332
f 41/65/333 7/32/333 11/37/333 42/68/333
f 42/68/334 11/37/334 29/387/334 43/388/334
f 43/388/335 29/387/335 28/57/335 60/86/335
f 60/86/336 28/57/336 27/54/336 56/80/336
f 56/80/337 27/54/337 3/9/337 39/14/337
f 75/16/338 40/15/338 67/92/338 78/98/338
f 78/98/339 67/92/339 71/96/339 79/101/339
f 79/101/340 71/96/340 55/83/340 80/103/340
f 80/103/341 55/83/341 54/81/341 97/119/341
f 97/119/342 54/81/342 53/78/342 93/113/342
f 93/113/343 53/78/343 39/14/343 76/13/343
f 112/22/344 77/21/344 104/124/344 115/130/344
f 115/130/345 104/124/345 108/128/345 116/133/345
f 116/133/346 108/128/346 92/116/346 117/389/346
f 117/389/347 92/116/347 91/114/347 134/151/347
f 134/151/348 91/114/348 90/111/348 130/145/348
f 130/145/349 90/111/349 76/13/349 113/12/349
f 149/6/350 114/5/350 141/157/350 152/164/350
f 152/164/351 141/157/351 145/161/351 153/167/351
f 153/167/352 145/161/352 129/390/352 154/169/352
f 154/169/353 129/390/353 128/146/353 171/185/353
f 171/185/354 128/146/354 127/143/354 167/179/354
f 167/179/355 127/143/355 113/12/355 150/11/355
f 186/20/356 151/19/356 178/190/356 189/196/356
f 189/196/357 178/190/357 182/194/357 190/199/357
f 190/199/358 182/194/358 166/182/358 191/201/358
f 191/201/359 166/182/359 165/180/359 208/217/359
f 208/217/360 165/180/360 164/177/360 204/211/360
f 204/211/361 164/177/361 150/11/361 187/10/361
f 2/2/362 188/1/362 215/222/362 16/43/362
f 16/43/363 215/222/363 219/226/363 17/46/363
f 17/46/364 219/226/364 203/214/364 18/391/364
f 18/391/365 203/214/365 202/212/365 34/61/365
f 34/61/366 202/212/366 201/209/366 30/56/366
f 30/56/367 201/209/367 187/10/367 3/9/367
f 262/14/368 224/9/368 241/238/368 286/274/368
f 286/274/369 241/238/369 245/243/369 287/277/369
f 287/277/370 245/243/370 228/387/370 288/263/370
f 288/263/371 228/387/371 227/37/371 270/260/371
f 270/260/372 227/37/372 226/229/372 266/256/372
f 266/256/373 226/229/373 223/228/373 260/253/373
f 299/25/374 262/14/374 289/276/374 323/113/374
f 323/113/375 289/276/375 293/280/375 324/302/375
f 324/302/376 293/280/376 277/83/376 325/103/376
f 325/103/377 277/83/377 276/267/377 307/288/377
f 307/288/378 276/267/378 275/92/378 303/284/378
f 303/284/379 275/92/379 261/18/379 297/17/379
f 336/26/380 299/25/380 326/301/380 360/324/380
f 360/324/381 326/301/381 330/114/381 361/327/381
f 361/327/382 330/114/382 314/306/382 362/389/382
f 362/389/383 314/306/383 313/294/383 344/313/383
f 344/313/384 313/294/384 312/292/384 340/309/384
f 340/309/385 312/292/385 298/24/385 334/23/385
f 373/27/386 336/26/386 363/326/386 397/352/386
f 397/352/387 363/326/387 367/330/387 398/355/387
f 398/355/388 367/330/388 351/392/388 399/342/388
f 399/342/389 351/392/389 350/161/389 381/339/389
f 381/339/390 350/161/390 349/157/390 377/335/390
f 377/335/391 349/157/391 335/8/391 371/7/391
f 410/28/392 373/27/392 400/354/392 434/379/392
f 434/379/393 400/354/393 404/358/393 435/382/393
f 435/382/394 404/358/394 388/182/394 436/201/394
f 436/201/395 388/182/395 387/194/395 418/199/395
f 418/199/396 387/194/396 386/344/396 414/362/396
f 414/362/397 386/344/397 372/19/397 408/20/397
f 224/9/398 410/28/398 437/381/398 238/236/398
f 238/236/399 437/381/399 441/385/399 239/239/399
f 239/239/400 441/385/400 425/214/400 240/391/400
f 240/391/401 425/214/401 424/372/401 256/251/401
f 256/251/402 424/372/402 423/369/402 252/248/402
f 252/248/403 423/369/403 409/4/403 225/3/403
f 114/5/404 335/8/404 352/318/404 138/155/404
f 138/155/405 352/318/405 356/158/405 139/158/405
f 139/158/406 356/158/406 339/141/406 140/141/406
f 140/141/407 339/141/407 338/310/407 122/138/407
f 122/138/408 338/310/408 337/307/408 118/132/408
f 118/132/409 337/307/409 334/23/409 112/22/409
f 297/17/410 75/16/410 81/100/410 300/282/410
f 300/282/411 81/100/411 85/106/411 301/285/411
f 301/285/412 85/106/412 103/109/412 302/109/412
f 302/109/413 103/109/413 102/125/413 319/125/413
f 319/125/414 102/125/414 101/122/414 315/122/414
f 315/122/415 101/122/415 77/21/415 298/24/415
f 40/15/416 261/18/416 278/90/416 64/90/416
f 64/90/417 278/90/417 282/271/417 65/93/417
f 65/93/418 282/271/418 265/76/418 66/76/418
f 66/76/419 265/76/419 264/257/419 48/73/419
f 48/73/420 264/257/420 263/254/420 44/67/420
f 44/67/421 263/254/421 260/253/421 38/64/421
f 225/3/422 2/2/422 19/45/422 249/246/422
f 249/246/423 19/45/423 23/51/423 250/51/423
f 250/51/424 23/51/424 6/35/424 251/35/424
f 251/35/425 6/35/425 5/33/425 233/33/425
f 233/33/426 5/33/426 4/30/426 229/30/426
f 229/30/427 4/30/427 1/29/427 223/228/427
f 408/20/428 186/20/428 192/198/428 411/360/428
f 411/360/429 192/198/429 196/204/429 412/363/429
f 412/363/430 196/204/430 214/207/430 413/207/430
f 413/207/431 214/207/431 213/223/431 430/376/431
f 430/376/432 213/223/432 212/220/432 426/371/432
f 426/371/433 212/220/433 188/1/433 409/4/433
f 151/19/434 372/19/434 389/346/434 175/188/434
f 175/188/435 389/346/435 393/191/435 176/191/435
f 176/191/436 393/191/436 376/175/436 177/175/436
f 177/175/437 376/175/437 375/336/437 159/172/437
f 159/172/438 375/336/438 374/333/438 155/166/438
f 155/166/439 374/333/439 371/7/439 149/6/439
f 1/29/440 38/64/440 260/253/440 223/228/440
